<?xml version="1.0" standalone="no"?>
<!DOCTYPE svg PUBLIC "-//W3C//DTD SVG 20010904//EN"
 "http://www.w3.org/TR/2001/REC-SVG-20010904/DTD/svg10.dtd">
<svg version="1.0" xmlns="http://www.w3.org/2000/svg"
 width="512.000000pt" height="512.000000pt" viewBox="0 0 512.000000 512.000000"
 preserveAspectRatio="xMidYMid meet">

<g transform="translate(0.000000,512.000000) scale(0.100000,-0.100000)"
fill="#000000" stroke="none">
<path d="M1455 4886 c-12 -8 -37 -68 -65 -156 l-46 -143 -75 -26 c-41 -15 -96
-38 -122 -51 l-48 -24 -135 67 c-74 37 -144 67 -156 67 -27 0 -324 -291 -332
-326 -5 -17 13 -62 62 -161 l69 -138 -34 -70 c-18 -38 -41 -94 -50 -122 l-16
-53 -141 -46 c-84 -27 -148 -54 -158 -66 -16 -18 -18 -45 -18 -232 0 -172 3
-216 15 -233 10 -15 59 -36 156 -68 110 -37 142 -52 149 -69 4 -11 27 -68 50
-124 l43 -104 -67 -136 c-36 -76 -66 -143 -66 -151 0 -8 71 -86 157 -173 132
-133 162 -158 187 -158 16 0 83 28 155 66 l125 65 76 -35 c41 -19 97 -43 124
-53 l49 -18 43 -130 c24 -71 48 -138 53 -147 8 -13 5 -21 -15 -37 -51 -40 -79
-41 -321 -10 -127 17 -248 27 -272 24 -91 -11 -137 -43 -320 -228 -179 -180
-206 -215 -220 -292 -9 -47 12 -638 24 -666 7 -18 46 -39 73 -39 9 0 133 117
277 260 l260 260 90 0 c50 0 127 -3 171 -6 l81 -7 6 -166 5 -166 -259 -260
c-224 -225 -259 -264 -259 -290 0 -35 8 -48 35 -62 11 -6 160 -16 332 -23 419
-16 371 -32 616 209 199 196 226 235 235 324 3 27 -8 154 -23 281 -17 140 -26
243 -21 261 5 20 60 83 164 188 l157 158 6 -46 c3 -26 12 -51 20 -56 7 -5 62
-25 120 -44 102 -34 106 -37 118 -73 7 -20 24 -62 38 -93 l25 -56 -51 -101
c-28 -56 -51 -111 -51 -123 0 -15 42 -65 127 -151 103 -104 132 -128 155 -128
16 0 73 23 128 50 99 50 101 50 132 34 17 -9 58 -26 90 -38 l60 -23 33 -99
c18 -54 36 -106 39 -115 14 -32 54 -39 220 -39 141 0 167 2 185 18 12 10 37
63 58 125 l38 109 94 38 94 39 98 -50 c54 -27 111 -49 125 -49 21 0 53 26 141
112 161 158 157 146 91 282 l-54 111 32 74 c18 41 35 82 37 91 3 12 40 29 116
55 73 24 116 44 126 58 22 31 22 353 0 384 -10 14 -53 34 -126 58 -76 26 -113
43 -116 55 -2 9 -19 50 -37 91 l-32 74 54 111 c66 136 70 124 -91 282 -88 86
-120 112 -141 112 -14 0 -71 -22 -125 -49 l-98 -50 -94 39 -94 38 -38 109
c-40 116 -61 143 -110 143 -31 0 -27 4 88 120 84 84 131 124 156 131 28 9 79
5 241 -15 379 -48 362 -53 610 192 199 197 224 232 234 330 2 26 -1 178 -8
339 -12 261 -15 293 -32 312 -12 13 -31 21 -50 21 -27 0 -63 -32 -291 -260
l-261 -261 -166 7 -166 7 -6 36 c-3 20 -6 97 -6 171 l0 135 260 260 c179 179
260 268 260 282 0 12 -10 33 -22 47 -23 25 -25 26 -248 36 -124 5 -277 10
-340 10 -167 0 -179 -7 -395 -227 -183 -186 -212 -227 -221 -312 -3 -25 6
-139 20 -253 37 -299 37 -305 -41 -381 l-39 -37 -149 49 -150 49 -23 64 c-12
34 -35 90 -51 123 l-28 60 63 127 c39 77 64 140 64 160 0 27 -19 51 -141 174
-78 79 -155 148 -172 155 -27 12 -39 8 -168 -56 l-138 -69 -68 32 c-37 18 -92
41 -122 50 l-55 18 -48 145 c-26 79 -56 150 -65 157 -25 18 -442 17 -468 -2z
m415 -256 c22 -72 49 -139 59 -149 11 -11 45 -27 77 -36 33 -9 108 -40 167
-68 l109 -51 132 66 133 66 99 -99 99 -100 -63 -122 c-34 -67 -62 -131 -62
-141 0 -11 20 -60 44 -110 24 -50 54 -123 66 -163 12 -40 28 -77 35 -83 7 -6
71 -30 142 -54 76 -25 129 -48 131 -57 3 -20 -1462 -1483 -1480 -1477 -7 3
-31 61 -52 129 -21 68 -45 132 -53 141 -8 9 -52 29 -97 44 -44 15 -116 44
-158 65 -43 22 -89 39 -104 39 -14 0 -80 -28 -145 -62 l-119 -63 -99 99 -100
100 64 124 c36 69 65 133 65 143 0 9 -18 52 -40 96 -22 43 -52 115 -67 161
-16 51 -34 89 -47 99 -11 8 -77 34 -146 57 l-125 41 0 139 0 139 135 43 c78
25 140 50 147 61 8 9 22 47 33 83 11 36 40 107 65 158 25 52 45 100 45 108 0
7 -28 70 -62 139 l-63 125 100 100 99 99 124 -64 c69 -36 131 -65 139 -65 7 0
46 17 86 37 39 20 117 53 172 72 l100 36 49 143 48 142 138 0 139 0 41 -130z
m2329 74 c10 -3 -60 -80 -197 -218 l-213 -213 7 -224 c6 -236 12 -277 43 -296
13 -8 101 -15 261 -19 l242 -7 212 212 213 213 6 -123 c11 -202 9 -327 -7
-357 -8 -15 -88 -100 -178 -189 -133 -131 -170 -163 -200 -168 -21 -4 -121 4
-241 19 -112 14 -233 26 -269 26 -129 0 -81 43 -1114 -992 -1029 -1031 -975
-971 -976 -1102 0 -33 12 -155 27 -270 25 -196 26 -211 11 -250 -23 -60 -326
-360 -377 -374 -23 -6 -102 -7 -215 -1 -99 4 -192 8 -209 8 -27 1 -13 17 184
215 l214 215 -7 238 c-9 284 -9 284 -102 294 -32 4 -144 9 -249 12 l-190 6
-210 -210 c-116 -115 -213 -209 -217 -209 -3 0 -9 98 -13 219 -5 164 -4 224 5
242 17 33 319 337 352 355 38 20 83 18 328 -12 244 -31 287 -28 369 25 25 17
460 446 967 953 724 726 925 933 942 969 35 77 35 127 3 372 -22 176 -27 237
-19 265 8 28 49 77 171 201 89 90 176 169 192 177 24 11 72 13 235 8 113 -3
211 -8 219 -10z m-611 -1994 c19 -55 40 -106 47 -114 8 -8 38 -22 67 -31 29
-9 93 -35 141 -58 l88 -41 101 53 101 52 70 -69 69 -69 -46 -91 c-25 -50 -46
-103 -46 -117 0 -14 12 -49 27 -78 14 -29 39 -87 54 -131 15 -43 36 -84 46
-91 10 -8 60 -26 111 -41 l92 -28 0 -102 0 -101 -92 -27 c-51 -15 -101 -33
-111 -41 -10 -7 -31 -48 -46 -91 -15 -44 -40 -102 -54 -131 -15 -29 -27 -64
-27 -78 0 -14 21 -67 46 -117 l46 -91 -69 -69 -69 -69 -101 53 -102 52 -88
-41 c-48 -23 -112 -49 -141 -58 -29 -9 -59 -23 -67 -31 -7 -8 -29 -59 -47
-114 l-32 -101 -100 3 -99 3 -27 87 c-36 114 -50 135 -102 148 -24 6 -88 32
-142 57 l-99 46 -105 -52 -105 -52 -68 67 -68 67 50 98 c27 54 49 106 49 114
0 9 -15 46 -34 83 -18 37 -43 97 -55 134 -12 36 -28 71 -36 78 -7 6 -57 26
-111 44 l-99 33 -3 68 -3 69 508 508 508 508 70 0 71 0 32 -100z"/>
<path d="M1585 4184 c-129 -21 -290 -91 -387 -168 -124 -99 -234 -272 -274
-431 -22 -92 -23 -266 -1 -357 61 -251 240 -459 477 -555 126 -50 299 -67 436
-42 238 44 459 216 564 440 97 208 95 468 -5 673 -100 205 -301 369 -516 421
-66 16 -241 27 -294 19z m260 -160 c110 -26 202 -79 291 -168 128 -128 181
-244 191 -417 25 -421 -358 -750 -772 -664 -229 48 -436 249 -490 476 -19 82
-19 228 0 304 68 268 295 459 580 488 47 5 135 -3 200 -19z"/>
<path d="M3385 2390 c-265 -31 -482 -223 -550 -485 -19 -76 -19 -224 0 -300
59 -229 240 -412 466 -470 81 -21 233 -21 314 0 174 45 337 178 413 336 42 87
72 205 72 284 0 79 -30 197 -72 284 -76 159 -244 295 -413 335 -81 19 -158 24
-230 16z m184 -155 c266 -63 434 -338 366 -600 -67 -255 -323 -417 -577 -364
-249 52 -429 307 -389 553 47 289 321 476 600 411z"/>
</g>
</svg>
